<?xml version="1.0" standalone="no"?>
<!DOCTYPE svg PUBLIC "-//W3C//DTD SVG 20010904//EN"
 "http://www.w3.org/TR/2001/REC-SVG-20010904/DTD/svg10.dtd">
<svg version="1.0" xmlns="http://www.w3.org/2000/svg"
 width="213.000000pt" height="81.000000pt" viewBox="0 0 213.000000 81.000000"
 preserveAspectRatio="xMidYMid meet">

<g transform="translate(0.000000,81.000000) scale(0.100000,-0.100000)"
fill="#000000" stroke="none">
<path d="M81 792 c-19 -9 -44 -30 -55 -45 -20 -27 -21 -41 -21 -327 0 -286 1
-300 21 -327 11 -15 36 -36 55 -45 32 -17 99 -18 984 -18 885 0 952 1 984 18
19 9 44 30 55 45 20 27 21 41 21 327 0 286 -1 300 -21 327 -11 15 -36 36 -55
45 -32 17 -99 18 -984 18 -885 0 -952 -1 -984 -18z m1985 -46 l34 -34 0 -292
0 -292 -34 -34 -34 -34 -967 0 -967 0 -34 34 -34 34 0 292 0 292 34 34 34 34
967 0 967 0 34 -34z"/>
<path d="M380 410 c0 -125 2 -150 15 -150 11 0 15 18 17 78 l3 77 59 -78 c36
-48 65 -77 77 -77 11 0 19 3 19 7 0 3 -25 39 -56 80 l-55 74 50 58 c28 32 51
64 51 70 0 27 -33 6 -81 -51 -29 -35 -56 -64 -60 -66 -5 -2 -9 26 -9 62 0 52
-3 66 -15 66 -13 0 -15 -23 -15 -150z"/>
<path d="M676 493 c-86 -229 -88 -237 -59 -231 9 2 22 19 28 38 12 35 12 35
78 38 l66 3 12 -41 c9 -28 18 -40 31 -40 10 0 18 4 18 10 0 5 -23 73 -51 150
-46 124 -54 140 -74 140 -19 0 -28 -11 -49 -67z m73 -45 c12 -34 21 -66 21
-70 0 -4 -22 -8 -50 -8 -27 0 -50 2 -50 3 0 7 39 118 45 127 10 16 12 13 34
-52z"/>
<path d="M904 547 c-2 -7 -3 -73 -2 -147 3 -119 5 -135 21 -138 15 -3 17 8 17
125 l0 128 61 -110 c71 -126 85 -145 111 -145 17 0 18 11 18 150 0 125 -2 150
-15 150 -12 0 -15 -23 -17 -122 l-3 -123 -68 123 c-59 104 -72 122 -93 122
-14 0 -27 -6 -30 -13z"/>
<path d="M1250 553 c-31 -12 -50 -37 -50 -68 0 -36 24 -62 88 -94 35 -18 42
-26 42 -51 0 -24 -6 -33 -27 -41 -25 -9 -39 -7 -95 16 -14 5 -18 2 -18 -13 0
-37 87 -54 139 -27 32 16 41 33 41 75 0 35 -18 53 -81 86 -39 19 -49 30 -49
49 0 41 42 53 104 29 23 -9 20 23 -3 36 -21 11 -66 12 -91 3z"/>
<path d="M1499 533 c-22 -55 -99 -267 -99 -270 0 -2 9 -3 20 -3 14 0 22 11 31
40 l12 40 67 0 67 0 12 -40 c9 -29 17 -40 31 -40 11 0 20 6 19 13 0 6 -24 73
-52 147 -44 113 -56 136 -74 138 -17 3 -26 -4 -34 -25z m57 -80 c10 -32 20
-64 22 -70 2 -9 -12 -13 -47 -13 -28 0 -51 3 -51 8 0 14 45 132 51 132 3 0 14
-26 25 -57z"/>
<path d="M1710 410 c0 -143 1 -150 20 -150 19 0 20 7 20 150 0 143 -1 150 -20
150 -19 0 -20 -7 -20 -150z"/>
</g>
</svg>
